{
  "accessors": [
    {
      "bufferView": 2,
      "componentType": 5126,
      "count": 1483,
      "max": [
        24.91417694091797,
        261.6892395019531,
        96.46395874023438
      ],
      "min": [
        2.913403272628784,
        3.668647289276123,
        -96.46395874023438
      ],
      "type": "VEC3"
    },
    {
      "bufferView": 2,
      "byteOffset": 17796,
      "componentType": 5126,
      "count": 1483,
      "max": [
        1.0,
        0.9999885559082031,
        0.999900221824646
      ],
      "min": [
        -1.0,
        -1.0,
        -0.999900221824646
      ],
      "type": "VEC3"
    },
    {
      "bufferView": 1,
      "componentType": 5126,
      "count": 1483,
      "max": [
        0.947868287563324,
        0.9826407432556152
      ],
      "min": [
        0.018047483637928963,
        0.030515916645526886
      ],
      "type": "VEC2"
    },
    {
      "bufferView": 0,
      "componentType": 5125,
      "count": 7734,
      "type": "SCALAR"
    }
  ],
  "asset": {
    "extras": {
      "author": "kennedy.adams (https://sketchfab.com/kennedy.adams)",
      "license": "CC-BY-4.0 (http://creativecommons.org/licenses/by/4.0/)",
      "source": "https://sketchfab.com/3d-models/gingerbread-man-3063423a50e948c49e0bd53184eba305",
      "title": "Gingerbread Man"
    },
    "generator": "Sketchfab-12.64.0",
    "version": "2.0"
  },
  "bufferViews": [
    {
      "buffer": 0,
      "byteLength": 30936,
      "name": "floatBufferViews",
      "target": 34963
    },
    {
      "buffer": 0,
      "byteLength": 11864,
      "byteOffset": 30936,
      "byteStride": 8,
      "name": "floatBufferViews",
      "target": 34962
    },
    {
      "buffer": 0,
      "byteLength": 35592,
      "byteOffset": 42800,
      "byteStride": 12,
      "name": "floatBufferViews",
      "target": 34962
    }
  ],
  "buffers": [
    {
      "byteLength": 78392,
      "uri": "scene.bin"
    }
  ],
  "images": [
    {
      "uri": "textures/gingerbread_man_baseColor.png"
    }
  ],
  "materials": [
    {
      "doubleSided": true,
      "name": "gingerbread_man",
      "pbrMetallicRoughness": {
        "baseColorTexture": {
          "index": 0
        },
        "metallicFactor": 0.0,
        "roughnessFactor": 0.8211145618000169
      }
    }
  ],
  "meshes": [
    {
      "name": "gingerbread man_gingerbread man_0",
      "primitives": [
        {
          "attributes": {
            "NORMAL": 1,
            "POSITION": 0,
            "TEXCOORD_0": 2
          },
          "indices": 3,
          "material": 0,
          "mode": 4
        }
      ]
    }
  ],
  "nodes": [
    {
      "children": [
        1
      ],
      "matrix": [
        -2.220446049250313e-16,
        2.220446049250313e-16,
        -1.0,
        0.0,
        -1.0,
        -4.930380657631324e-32,
        2.220446049250313e-16,
        0.0,
        0.0,
        1.0,
        2.220446049250313e-16,
        0.0,
        13.913819313049316,
        -3.089468183573572e-15,
        13.913727760314941,
        1.0
      ],
      "name": "Sketchfab_model"
    },
    {
      "children": [
        2
      ],
      "matrix": [
        1.0,
        0.0,
        0.0,
        0.0,
        0.0,
        0.0,
        1.0,
        0.0,
        0.0,
        -1.0,
        0.0,
        0.0,
        0.0,
        0.0,
        0.0,
        1.0
      ],
      "name": "22034034b19f4d9c9b9ab7b855d9632c.fbx"
    },
    {
      "children": [
        3
      ],
      "name": "RootNode"
    },
    {
      "children": [
        4
      ],
      "name": "gingerbread man"
    },
    {
      "mesh": 0,
      "name": "gingerbread man_gingerbread man_0"
    }
  ],
  "samplers": [
    {
      "magFilter": 9729,
      "minFilter": 9987,
      "wrapS": 10497,
      "wrapT": 10497
    }
  ],
  "scene": 0,
  "scenes": [
    {
      "name": "Sketchfab_Scene",
      "nodes": [
        0
      ]
    }
  ],
  "textures": [
    {
      "sampler": 0,
      "source": 0
    }
  ]
}
